<svg xmlns="http://www.w3.org/2000/svg" xmlns:xlink="http://www.w3.org/1999/xlink" width="25px" height="17px" viewBox="0 0 25 17"><g id="Page-1" stroke="none" stroke-width="1" fill="none" fill-rule="evenodd"><g id="Partners-Single-Mobile-View" transform="translate(-234.000000, -8900.000000)"><g id="Group-8" transform="translate(0.000000, 8389.000000)"><g id="Group-15"><g id="Group-10"><g id="Group-30"><g id="Group-22" transform="translate(116.000000, 507.000000)"><g id="Group-14" transform="translate(117.642235, 0.000000)"><rect id="Rectangle" x="0.642235" y="0" width="24" height="24"></rect><path d="M12.642235,21 L16.6418872,20.955375 C19.4551046,20.866125 21.2425828,20.7195 22.0053654,20.5123125 C22.532322,20.364625 22.986235,20.099 23.3671046,19.7154375 C23.7479741,19.331875 24.0119741,18.8888125 24.1580611,18.3873125 C24.3636263,17.5904375 24.5097133,16.365375 24.5973654,14.7131875 L24.642235,12.4989375 L24.5973654,10.28575 C24.5097133,8.66225 24.3636263,7.4520625 24.1591046,6.6551875 C24.0119741,6.1239375 23.7479741,5.6670625 23.3660611,5.2835 C22.986235,4.8999375 22.5312785,4.6343125 22.004322,4.486625 C21.2425828,4.2794375 19.4551046,4.13175 16.6408437,4.0435625 L12.642235,4 L8.64153935,4.0435625 C5.82832196,4.13175 4.0408437,4.2794375 3.27910457,4.486625 C2.75214804,4.6343125 2.298235,4.8999375 1.91632196,5.2835 C1.53545239,5.666 1.27145239,6.1239375 1.12536544,6.6551875 C0.919800217,7.4520625 0.773713261,8.6633125 0.686061087,10.28575 C0.656843696,11.112375 0.642235,11.84975 0.642235,12.5 L0.686061087,14.71425 C0.773713261,16.3664375 0.919800217,17.5915 1.12432196,18.388375 C1.27145239,18.889875 1.53545239,19.3329375 1.91736543,19.7165 C2.29719152,20.1000625 2.75214804,20.3656875 3.27910457,20.513375 C4.0408437,20.7205625 5.82832196,20.8671875 8.64258283,20.9564375 L12.642235,21 L12.642235,21 Z M10.1796263,16.1295 L10.1796263,8.913 L16.4655393,12.4989375 L10.1806698,16.1295 L10.1796263,16.1295 Z" id="Shape" fill="#FFFFFF" fill-rule="nonzero" opacity="0.7"></path></g></g></g></g></g></g></g></g></svg>